<mxfile host="app.diagrams.net" modified="2023-06-22T21:57:57.303Z" agent="Mozilla/5.0 (Windows NT 10.0; Win64; x64; rv:109.0) Gecko/20100101 Firefox/114.0" etag="41RRF3up8WHZFCxzBHxk" version="21.1.5" type="github">
  <diagram name="Page-1" id="gc1xU4WCds6mET2doTVM">
    <mxGraphModel dx="1183" dy="683" grid="1" gridSize="10" guides="1" tooltips="1" connect="1" arrows="1" fold="1" page="1" pageScale="1" pageWidth="827" pageHeight="1169" math="0" shadow="0">
      <root>
        <mxCell id="0" />
        <mxCell id="1" parent="0" />
        <mxCell id="gphhecgigNy3G6I6mof4-36" style="edgeStyle=orthogonalEdgeStyle;rounded=0;orthogonalLoop=1;jettySize=auto;html=1;exitX=0.228;exitY=1;exitDx=0;exitDy=0;exitPerimeter=0;endArrow=none;endFill=0;entryX=0.5;entryY=1;entryDx=0;entryDy=0;startArrow=classic;startFill=1;" edge="1" parent="1" source="gphhecgigNy3G6I6mof4-20" target="gphhecgigNy3G6I6mof4-2">
          <mxGeometry relative="1" as="geometry">
            <mxPoint x="560" y="560" as="targetPoint" />
            <Array as="points">
              <mxPoint x="560" y="450" />
              <mxPoint x="560" y="580" />
              <mxPoint x="100" y="580" />
            </Array>
          </mxGeometry>
        </mxCell>
        <mxCell id="gphhecgigNy3G6I6mof4-1" value="&lt;div style=&quot;font-size: 13px;&quot;&gt;&lt;font style=&quot;font-size: 13px;&quot;&gt;Random&lt;br style=&quot;font-size: 13px;&quot;&gt;&lt;/font&gt;&lt;/div&gt;&lt;div style=&quot;font-size: 13px;&quot;&gt;&lt;font style=&quot;font-size: 13px;&quot;&gt;Gaussian&lt;/font&gt;&lt;/div&gt;&lt;div style=&quot;font-size: 13px;&quot;&gt;&lt;font style=&quot;font-size: 13px;&quot;&gt;Noise&lt;br style=&quot;font-size: 13px;&quot;&gt;&lt;/font&gt;&lt;/div&gt;" style="rounded=0;html=1;rotation=0;whiteSpace=wrap;direction=east;fillColor=#f5f5f5;fontColor=#333333;strokeColor=#666666;fontSize=13;fontFamily=Verdana;" vertex="1" parent="1">
          <mxGeometry x="40" y="400" width="120" height="60" as="geometry" />
        </mxCell>
        <mxCell id="gphhecgigNy3G6I6mof4-13" value="" style="edgeStyle=orthogonalEdgeStyle;rounded=0;orthogonalLoop=1;jettySize=auto;html=1;entryX=0;entryY=0.5;entryDx=0;entryDy=0;strokeWidth=2;fontSize=13;fontFamily=Verdana;" edge="1" parent="1" target="gphhecgigNy3G6I6mof4-18">
          <mxGeometry relative="1" as="geometry">
            <mxPoint x="330" y="480" as="sourcePoint" />
            <mxPoint x="405" y="480" as="targetPoint" />
          </mxGeometry>
        </mxCell>
        <mxCell id="gphhecgigNy3G6I6mof4-6" value="" style="strokeWidth=2;html=1;shape=mxgraph.flowchart.annotation_2;align=left;labelPosition=right;pointerEvents=1;rotation=-180;fontSize=13;fontFamily=Verdana;" vertex="1" parent="1">
          <mxGeometry x="160" y="430" width="87.5" height="100" as="geometry" />
        </mxCell>
        <mxCell id="gphhecgigNy3G6I6mof4-2" value="&lt;div&gt;&lt;font style=&quot;font-size: 13px;&quot;&gt;GWAS&lt;/font&gt;&lt;/div&gt;&lt;div&gt;&lt;font style=&quot;font-size: 13px;&quot;&gt;Summary&lt;/font&gt;&lt;/div&gt;&lt;div&gt;&lt;font style=&quot;font-size: 13px;&quot;&gt;Stats&lt;/font&gt;&lt;/div&gt;" style="rounded=0;whiteSpace=wrap;html=1;rotation=0;verticalAlign=middle;fillColor=#f5f5f5;fontColor=#333333;strokeColor=#666666;fontSize=13;fontFamily=Verdana;" vertex="1" parent="1">
          <mxGeometry x="40" y="500" width="120" height="60" as="geometry" />
        </mxCell>
        <mxCell id="gphhecgigNy3G6I6mof4-16" value="&lt;font style=&quot;font-size: 13px;&quot;&gt;Real Genotype&lt;br&gt;&lt;/font&gt;" style="rounded=0;whiteSpace=wrap;html=1;arcSize=8;strokeWidth=2;fillColor=#f5f5f5;fontColor=#333333;strokeColor=#666666;fontSize=13;fontFamily=Verdana;" vertex="1" parent="1">
          <mxGeometry x="400" y="330" width="120" height="60" as="geometry" />
        </mxCell>
        <mxCell id="gphhecgigNy3G6I6mof4-18" value="Fake Genotype" style="rounded=0;whiteSpace=wrap;html=1;arcSize=8;strokeWidth=2;fillColor=#f5f5f5;fontColor=#333333;strokeColor=#666666;fontSize=13;fontFamily=Verdana;" vertex="1" parent="1">
          <mxGeometry x="400" y="450" width="120" height="60" as="geometry" />
        </mxCell>
        <mxCell id="gphhecgigNy3G6I6mof4-25" value="" style="edgeStyle=orthogonalEdgeStyle;rounded=0;orthogonalLoop=1;jettySize=auto;html=1;fontSize=13;fontFamily=Verdana;" edge="1" parent="1" source="gphhecgigNy3G6I6mof4-20" target="gphhecgigNy3G6I6mof4-24">
          <mxGeometry relative="1" as="geometry" />
        </mxCell>
        <mxCell id="gphhecgigNy3G6I6mof4-20" value="&lt;div style=&quot;font-size: 13px;&quot;&gt;&lt;font style=&quot;font-size: 13px;&quot;&gt;Discriminator&lt;/font&gt;&lt;/div&gt;" style="verticalLabelPosition=middle;verticalAlign=middle;html=1;shape=trapezoid;perimeter=trapezoidPerimeter;whiteSpace=wrap;size=0.23863636363636365;arcSize=10;flipV=1;labelPosition=center;align=center;rotation=0;rounded=0;flipH=0;direction=south;fillColor=#dae8fc;strokeColor=#6c8ebf;fontSize=13;fontFamily=Verdana;" vertex="1" parent="1">
          <mxGeometry x="577.5" y="365" width="120" height="110" as="geometry" />
        </mxCell>
        <mxCell id="gphhecgigNy3G6I6mof4-21" value="" style="strokeWidth=2;html=1;shape=mxgraph.flowchart.annotation_2;align=left;labelPosition=right;pointerEvents=1;rotation=-180;fontSize=13;fontFamily=Verdana;" vertex="1" parent="1">
          <mxGeometry x="520" y="360" width="57.5" height="120" as="geometry" />
        </mxCell>
        <mxCell id="gphhecgigNy3G6I6mof4-23" value="&lt;div style=&quot;font-size: 13px;&quot;&gt;&lt;font style=&quot;font-size: 13px;&quot;&gt;Generator&lt;/font&gt;&lt;/div&gt;" style="verticalLabelPosition=middle;verticalAlign=middle;html=1;shape=trapezoid;perimeter=trapezoidPerimeter;whiteSpace=wrap;size=0.23;arcSize=10;flipV=1;labelPosition=center;align=center;rotation=0;rounded=0;flipH=0;direction=north;fillColor=#dae8fc;strokeColor=#6c8ebf;fontSize=13;fontFamily=Verdana;" vertex="1" parent="1">
          <mxGeometry x="240" y="425" width="120" height="110" as="geometry" />
        </mxCell>
        <mxCell id="gphhecgigNy3G6I6mof4-24" value="&lt;div&gt;Real &lt;br&gt;&lt;/div&gt;&lt;div&gt;or&lt;br&gt;&lt;/div&gt;&lt;div&gt;&amp;nbsp;Fake&lt;/div&gt;" style="ellipse;whiteSpace=wrap;html=1;fillColor=#f5f5f5;strokeColor=#666666;arcSize=10;rounded=0;fontSize=13;fontFamily=Verdana;fontColor=#333333;" vertex="1" parent="1">
          <mxGeometry x="740" y="380" width="80" height="80" as="geometry" />
        </mxCell>
        <mxCell id="gphhecgigNy3G6I6mof4-34" value="" style="shape=orEllipse;perimeter=ellipsePerimeter;whiteSpace=wrap;html=1;backgroundOutline=1;" vertex="1" parent="1">
          <mxGeometry x="185.35" y="460" width="36.8" height="40" as="geometry" />
        </mxCell>
      </root>
    </mxGraphModel>
  </diagram>
</mxfile>
